<svg width="40" height="40" viewBox="0 0 40 40" fill="none" xmlns="http://www.w3.org/2000/svg">
  <rect width="40" height="40" rx="12" fill="url(#paint0_linear)" />
  <path d="M10 20C10 14.4772 14.4772 10 20 10V10C25.5228 10 30 14.4772 30 20V26C30 28.2091 28.2091 30 26 30H14C11.7909 30 10 28.2091 10 26V20Z" fill="white"/>
  <path d="M16 19C16 17.8954 16.8954 17 18 17C19.1046 17 20 17.8954 20 19C20 20.1046 19.1046 21 18 21C16.8954 21 16 20.1046 16 19Z" fill="#FF5E94"/>
  <path d="M22 19C22 17.8954 22.8954 17 24 17C25.1046 17 26 17.8954 26 19C26 20.1046 25.1046 21 24 21C22.8954 21 22 20.1046 22 19Z" fill="#8A2BE2"/>
  <path d="M15 25C15 25 17 27 20.5 27C24 27 26 25 26 25" stroke="#1A1A2E" stroke-width="2" stroke-linecap="round"/>
  <defs>
    <linearGradient id="paint0_linear" x1="0" y1="0" x2="40" y2="40" gradientUnits="userSpaceOnUse">
      <stop stop-color="#FF5E94"/>
      <stop offset="1" stop-color="#8A2BE2"/>
    </linearGradient>
  </defs>
</svg>